<svg width="51" height="77" viewBox="0 0 51 77" fill="none" xmlns="http://www.w3.org/2000/svg">
<path d="M50 1H1V76H50V1Z" stroke="black" stroke-width="2"/>
<path d="M38 13.4207V43H13V13.4207C13.2421 13.3843 13.522 13.328 13.7928 13.2377C14.0212 13.1616 14.3116 13.0394 14.568 12.832C14.6217 12.8045 14.6952 12.7669 14.7868 12.7206C14.9985 12.6136 15.3066 12.4601 15.6887 12.2755C16.4539 11.9059 17.5124 11.4139 18.6875 10.9226C19.8649 10.4305 21.1462 9.94471 22.3594 9.5834C23.5882 9.21744 24.6798 9 25.5 9C26.3202 9 27.4118 9.21744 28.6406 9.5834C29.8538 9.94471 31.1351 10.4305 32.3125 10.9226C33.4876 11.4139 34.5461 11.9059 35.3113 12.2755C35.6934 12.4601 36.0015 12.6136 36.2132 12.7206C36.3048 12.7669 36.3783 12.8045 36.432 12.832C36.6884 13.0394 36.9788 13.1616 37.2072 13.2377C37.478 13.328 37.7579 13.3843 38 13.4207Z" stroke="black" stroke-width="2"/>
<path d="M25.5 9V42.5" stroke="black" stroke-width="2"/>
<path d="M13 34H38" stroke="black" stroke-width="2"/>
<path d="M13 25H38" stroke="black" stroke-width="2"/>
<rect x="13" y="49" width="25" height="17" fill="black" stroke="black" stroke-width="2"/>
</svg>
