<svg width="21" height="14" viewBox="0 0 21 14" fill="none" xmlns="http://www.w3.org/2000/svg">
<path d="M6.45221 6.93292H19.5M10.3219 3.08497C10.8383 3.59443 11.2487 4.20101 11.5297 4.86976C11.8106 5.53851 11.9565 6.25623 11.9589 6.9816C11.9614 7.70697 11.8203 8.42565 11.5438 9.09627C11.2674 9.76689 10.861 10.3762 10.3481 10.8891C9.83515 11.402 9.22584 11.8084 8.55522 12.0849C7.8846 12.3613 7.16591 12.5024 6.44055 12.5C5.71518 12.4976 4.99746 12.3517 4.32871 12.0707C3.65995 11.7898 3.05338 11.3793 2.54392 10.863C1.54205 9.82566 0.987677 8.43634 1.00021 6.99426C1.01274 5.55218 1.59117 4.17271 2.61091 3.15297C3.63066 2.13322 5.01013 1.55479 6.45221 1.54226C7.89429 1.52973 9.2836 2.0841 10.3209 3.08597L10.3219 3.08497Z" stroke="white" stroke-width="2" stroke-linecap="round" stroke-linejoin="round"/>
</svg>
