<svg width="29" height="28" viewBox="0 0 29 28" fill="none" xmlns="http://www.w3.org/2000/svg">
<path d="M1.07405 26.2516C0.928434 26.6053 1.03071 26.867 1.10005 26.9537C1.54211 27.0577 1.43809 26.9537 1.69812 26.9537C1.95815 26.9537 3.70035 25.9396 4.79247 25.2635C5.8846 24.5875 12.6454 19.1268 14.9076 17.3586C17.1699 15.5904 20.2382 11.846 20.5243 11.534C20.8103 11.2219 20.3683 11.1179 20.1082 11.0139C19.3177 10.6187 18.6174 9.91311 18.366 9.60974C18.2273 9.50573 17.8564 9.18329 17.4819 8.72563C17.0139 8.15357 17.1959 7.5815 16.8839 7.65951C16.5718 7.73752 13.8675 9.84376 10.9032 13.1461C7.75681 15.9805 1.10005 25.6536 1.07405 26.2516Z" stroke="white"/>
<path d="M18.86 4.14917C17.5287 5.48052 18.6867 7.54689 19.4321 8.41366C19.9702 9.16774 22.0844 10.4679 23.8526 9.45378C25.6208 8.43966 25.5168 5.96938 25.8808 4.38319C26.2449 2.79701 27.519 1.49686 27.623 1.39285C27.7271 1.28884 27.571 1.08082 25.7508 1.00281C23.9306 0.924798 20.5242 2.48498 18.86 4.14917Z" stroke="white"/>
</svg>
