<svg width="26" height="26" viewBox="0 0 26 26" fill="none" xmlns="http://www.w3.org/2000/svg">
<path d="M3.52632 2.14285H14.8947H22.4737C24.4947 2.14285 25 3.66666 25 4.42857V21.5714C25 23.4 23.3158 23.8571 22.4737 23.8571H3.52632C1.50526 23.8571 1 22.3333 1 21.5714V5C1 2.71428 2.68421 2.14285 3.52632 2.14285Z" stroke="white"/>
<path d="M14.8947 1H11.1053V13.5714H14.8947V1Z" stroke="white"/>
<path d="M14.8947 12.4286H11.1053V25H14.8947V12.4286Z" stroke="white"/>
<circle cx="4" cy="5" r="1.5" stroke="white"/>
<circle cx="6" cy="13" r="1.5" stroke="white"/>
<circle cx="4" cy="21" r="1.5" stroke="white"/>
<circle cx="22" cy="21" r="1.5" stroke="white"/>
<circle cx="20" cy="13" r="1.5" stroke="white"/>
<circle cx="22" cy="5" r="1.5" stroke="white"/>
</svg>
